<?xml version="1.0" encoding="utf-8"?>
<!-- Generator: Adobe Illustrator 15.0.0, SVG Export Plug-In . SVG Version: 6.00 Build 0)  -->
<!DOCTYPE svg PUBLIC "-//W3C//DTD SVG 1.1//EN" "http://www.w3.org/Graphics/SVG/1.1/DTD/svg11.dtd">
<svg version="1.1" id="Layer_1" xmlns="http://www.w3.org/2000/svg" xmlns:xlink="http://www.w3.org/1999/xlink" x="0px" y="0px"
	 width="22px" height="22px" viewBox="245 245 22 22" enable-background="new 245 245 22 22" xml:space="preserve">
<g>
	<path fill="#FFFFFF" d="M245,264.991c0,0.458,0.367,0.825,0.825,0.825h2.566c0.367-0.092,0.733-0.459,0.733-0.825v-2.017
		c0-0.459-0.367-0.825-0.825-0.825h-2.475c-0.458,0-0.825,0.366-0.825,0.825V264.991z"/>
	<path fill="#FFFFFF" d="M254.258,265.725c0.458,0,0.825-0.367,0.825-0.824v-4.768c0-0.458-0.367-0.824-0.825-0.824h-2.566
		c-0.458,0-0.825,0.366-0.825,0.824v4.858c0,0.458,0.367,0.825,0.825,0.825h2.566V265.725z"/>
	<path fill="#FFFFFF" d="M257.649,265.725h2.567c0.458,0,0.825-0.367,0.825-0.824v-7.426c0-0.459-0.367-0.825-0.825-0.825h-2.567
		c-0.457,0-0.824,0.366-0.824,0.825v7.517C256.917,265.357,257.283,265.725,257.649,265.725z"/>
	<path fill="#FFFFFF" d="M267,252.983c0-0.458-0.366-0.825-0.825-0.825h-2.566c-0.459,0-0.825,0.366-0.825,0.825V264.9
		c0,0.457,0.366,0.824,0.825,0.824h2.566c0.459,0,0.825-0.367,0.825-0.824V252.983z"/>
	<path fill="#FFFFFF" d="M263.425,249.225c0.184,0.184,0.367,0.184,0.551,0.184c0.092,0,0.274,0,0.366-0.092
		c0.366-0.092,0.642-0.458,0.642-0.825l0.184-2.475c0-0.367-0.184-0.642-0.367-0.825c-0.275-0.184-0.642-0.275-0.916-0.092
		l-2.292,0.825c-0.366,0.091-0.55,0.458-0.642,0.825s0.092,0.733,0.367,0.917l0.365,0.275c-3.115,3.667-8.982,7.699-14.116,7.699
		c-0.55,0-0.917,0.367-0.917,0.918c0,0.549,0.367,0.916,0.917,0.916c5.775,0,12.192-4.4,15.583-8.525L263.425,249.225z"/>
</g>
</svg>
