<?xml version="1.0" encoding="utf-8"?>
<!-- Generator: Adobe Illustrator 16.0.3, SVG Export Plug-In . SVG Version: 6.00 Build 0)  -->
<!DOCTYPE svg PUBLIC "-//W3C//DTD SVG 1.1//EN" "http://www.w3.org/Graphics/SVG/1.1/DTD/svg11.dtd">
<svg version="1.1" id="Ebene_1" xmlns="http://www.w3.org/2000/svg" xmlns:xlink="http://www.w3.org/1999/xlink" x="0px" y="0px"
	 width="537.056px" height="105.03px" viewBox="0 0 537.056 105.03" enable-background="new 0 0 537.056 105.03"
	 xml:space="preserve">
<g>
	<path fill="#FFFFFF" d="M28.271,79.322c-7.423,0-13.989-2.88-19.702-8.643C2.856,64.918,0,58.058,0,50.098V29.224
		c0-8.203,2.856-15.136,8.569-20.801C14.282,2.76,20.849-0.047,28.271,0c7.421,0,13.793,2.331,19.116,6.991
		c5.371,4.662,8.936,10.673,10.693,18.031l-17.432,6.133c-0.196-3.893-1.392-7.203-3.589-9.929c-2.197-2.774-4.81-4.161-7.837-4.161
		c-3.076,0-5.689,1.095-7.837,3.286c-2.149,2.19-3.223,4.842-3.223,7.957v21.537c0,3.31,1.099,6.206,3.296,8.688
		c2.197,2.482,4.761,3.723,7.69,3.723c2.93,0.049,5.468-1.338,7.617-4.161c2.197-2.822,3.54-6.181,4.028-10.075l17.432,6.279
		c-1.807,7.171-5.396,13.146-10.767,17.926C42.089,76.956,35.693,79.322,28.271,79.322z"/>
	<path fill="#FFFFFF" d="M125.669,30.469v18.896c0,8.302-2.882,15.381-8.643,21.24c-5.762,5.812-12.671,8.716-20.728,8.716
		c-8.106,0-14.991-2.88-20.654-8.643c-5.665-5.761-8.496-12.622-8.496-20.581V29.371c0-8.203,2.856-15.136,8.569-20.801
		C81.431,2.906,88.29,0.05,96.299,0c8.007,0,14.916,2.955,20.728,8.862C122.787,14.771,125.669,21.973,125.669,30.469z
		 M107.505,49.952V28.199c0-3.124-1.075-5.761-3.223-7.91c-2.197-2.148-4.859-3.223-7.983-3.223c-3.125,0-5.738,1.075-7.837,3.223
		c-2.1,2.149-3.149,4.786-3.149,7.91v21.753c0,3.223,1.073,6.079,3.223,8.569c2.148,2.49,4.735,3.735,7.764,3.735
		c3.027,0,5.664-1.245,7.91-3.735C106.406,56.031,107.505,53.174,107.505,49.952z"/>
	<path fill="#FFFFFF" d="M171.43,0c8.301,0,14.697,2.906,19.189,8.716C195.405,2.906,202.459,0,211.788,0
		c6.592,0,12.475,2.563,17.65,7.69s7.789,12.403,7.838,21.826v48.779h-18.164V28.345c0-3.027-1.074-5.664-3.223-7.91
		c-2.1-2.245-4.713-3.369-7.838-3.369s-5.762,1.075-7.91,3.223c-2.148,2.149-3.223,4.834-3.223,8.057v49.951h-18.164V28.345
		c0-3.027-1.098-5.664-3.295-7.91c-2.197-2.245-4.859-3.369-7.984-3.369s-5.713,1.075-7.764,3.223
		c-2.1,2.149-3.148,4.834-3.148,8.057v49.951h-18.165V1.026h18.018v6.592h1.465c1.219-1.806,2.221-3.124,3.002-3.955
		c0.781-0.83,2.1-1.635,3.955-2.417C166.694,0.465,168.891,0.05,171.43,0z"/>
	<path fill="#FFFFFF" d="M270.367,1.026v6.526h1.318c1.22-1.791,2.222-3.098,3.003-3.92c0.78-0.823,2.099-1.622,3.955-2.396
		c1.855-0.775,4.053-1.187,6.592-1.235c7.422,0,13.524,2.516,18.311,7.544c4.785,5.03,7.178,12.354,7.178,21.973v20.435
		c0,8.106-2.857,15.04-8.57,20.801c-5.712,5.762-12.623,8.617-20.727,8.569c-4.102,0-7.789-0.782-11.06-2.344v28.052h-18.164V1.026
		H270.367z M292.559,50.94V28.382c0-3.085-1.074-5.731-3.223-7.936c-2.149-2.253-4.786-3.38-7.91-3.38
		c-3.125,0-5.738,1.078-7.837,3.233c-2.149,2.156-3.223,4.85-3.223,8.083v22.853c0,2.988,1.099,5.56,3.296,7.716
		s4.809,3.258,7.837,3.306c3.027,0,5.64-1.077,7.837-3.233C291.485,56.869,292.559,54.174,292.559,50.94z"/>
	<path fill="#FFFFFF" d="M348.546,79.322c-8.939,0-15.869-2.25-20.791-6.751c-4.869-4.5-7.305-10.067-7.305-16.704
		c0-6.635,2.383-12.613,7.152-17.932c4.768-5.319,12.295-7.954,22.578-7.906h13.262v-4.583c0.049-3.104-0.803-5.277-2.555-6.519
		c-1.754-1.24-4.869-1.862-9.348-1.862c-7.475,0-12.934,2.268-16.375,6.805L323.286,9.826C330.694,3.276,339.69,0,350.274,0
		c10.586,0,18.467,2.003,23.643,6.006c5.127,4.004,7.689,10.596,7.689,19.775v52.515h-18.164v-6.863h-1.459
		c-1.316,1.77-2.338,3.085-3.068,3.943c-0.73,0.81-2.021,1.67-3.871,2.58S351.028,79.322,348.546,79.322z M363.442,53.724v-6.628
		h-13.875c-3.506,0-6.207,0.753-8.105,2.257c-1.9,1.505-2.848,3.456-2.848,5.853c0,4.701,3.943,7.052,11.83,7.052
		c3.992,0,7.156-0.775,9.494-2.327C362.274,58.378,363.442,56.31,363.442,53.724z"/>
	<path fill="#FFFFFF" d="M414.771,1.026v6.592h1.465c1.221-1.806,2.223-3.124,3.004-3.955c0.779-0.83,2.098-1.635,3.955-2.417
		c1.855-0.78,4.541-1.196,8.057-1.245c3.416,0,7.568,1.245,12.451,3.735l-8.057,17.871c-7.277-5.273-13.16-5.664-17.652-1.172
		c-2.148,2.149-3.223,4.786-3.223,7.91v49.951h-18.164V1.026H414.771z"/>
	<path fill="#FFFFFF" d="M477.343,79.322c-8.088,0-14.975-2.88-20.66-8.643c-5.686-5.761-8.527-12.622-8.527-20.581V29.224
		c0-8.104,2.834-14.989,8.506-20.654C462.333,2.906,469.128,0.05,477.05,0c7.918,0,14.859,2.93,20.824,8.789
		c5.916,5.859,8.875,12.671,8.875,20.435v16.699h-40.43v3.882c0,3.321,1.094,6.226,3.283,8.716c2.191,2.49,4.576,3.735,7.156,3.735
		c2.578,0,4.939-0.976,7.08-2.93c2.045-1.952,3.627-4.418,4.746-7.397l16.918,5.933c-2.488,6.299-6.291,11.451-11.41,15.454
		C488.972,77.32,483.39,79.322,477.343,79.322z M488.585,32.374v-5.006c0-2.998-1.096-5.465-3.285-7.399
		c-2.143-1.934-4.77-2.902-7.885-2.902s-5.742,0.968-7.885,2.902c-2.141,1.934-3.211,4.401-3.211,7.399v5.006H488.585z"/>
	<path fill="#FFFFFF" d="M527.794,61.011c2.621,0,4.82,0.863,6.598,2.587c1.775,1.726,2.664,3.871,2.664,6.435
		c0,2.566-0.889,4.755-2.664,6.568c-1.777,1.813-3.955,2.72-6.531,2.72s-4.754-0.908-6.529-2.72
		c-1.822-1.813-2.732-4.025-2.732-6.634s0.889-4.754,2.666-6.435C523.04,61.853,525.218,61.011,527.794,61.011z"/>
</g>
</svg>
