<?xml version="1.0" encoding="utf-8"?>
<!-- Generator: Adobe Illustrator 15.0.0, SVG Export Plug-In . SVG Version: 6.00 Build 0)  -->
<!DOCTYPE svg PUBLIC "-//W3C//DTD SVG 1.1//EN" "http://www.w3.org/Graphics/SVG/1.1/DTD/svg11.dtd">
<svg version="1.1" id="Capa_1" xmlns="http://www.w3.org/2000/svg" xmlns:xlink="http://www.w3.org/1999/xlink" x="0px" y="0px"
	 width="595.281px" height="611.445px" viewBox="0 0 595.281 611.445" enable-background="new 0 0 595.281 611.445"
	 xml:space="preserve">
<g>
	
		<linearGradient id="SVGID_1_" gradientUnits="userSpaceOnUse" x1="152.9492" y1="454.1812" x2="-11.8496" y2="454.1812" gradientTransform="matrix(1.0199 0 0 -1.0199 0.037 857.7459)">
		<stop  offset="0" style="stop-color:#ECA0AA"/>
		<stop  offset="1" style="stop-color:#F8DDE3"/>
	</linearGradient>
	<path fill="url(#SVGID_1_)" d="M4.103,452.951c-7.705-33.536,13.235-66.967,46.771-74.672
		c57.479-13.204,71.032-33.135,122.432-76.072c26.41-22.06,65.701-18.534,87.76,7.877c22.059,26.407,18.532,65.699-7.876,87.756
		c-49.673,41.495-83.821,81.069-174.415,101.883C45.236,507.428,11.808,486.482,4.103,452.951L4.103,452.951z"/>
	
		<linearGradient id="SVGID_2_" gradientUnits="userSpaceOnUse" x1="173.2017" y1="467.4946" x2="-33.1065" y2="467.4946" gradientTransform="matrix(1.0199 0 0 -1.0199 0.037 857.7459)">
		<stop  offset="0" style="stop-color:#EC6F80"/>
		<stop  offset="1" style="stop-color:#ECA0AA"/>
	</linearGradient>
	<path fill="url(#SVGID_2_)" d="M240.624,383.755l33.433-20.218c4.034-18.215-0.106-38.03-12.99-53.454
		c-22.058-26.411-61.35-29.935-87.76-7.877c-51.399,42.938-64.954,62.868-122.432,76.072c-33.536,7.703-54.477,41.136-46.771,74.672
		C33.883,482.077,101.847,498.285,240.624,383.755L240.624,383.755z"/>
	
		<linearGradient id="SVGID_3_" gradientUnits="userSpaceOnUse" x1="73.4946" y1="454.1812" x2="-91.3043" y2="454.1812" gradientTransform="matrix(-1.0199 0 0 -1.0199 514.7115 857.7459)">
		<stop  offset="0" style="stop-color:#ECA0AA"/>
		<stop  offset="1" style="stop-color:#F8DDE3"/>
	</linearGradient>
	<path fill="url(#SVGID_3_)" d="M591.685,452.951c7.703-33.536-13.235-66.967-46.771-74.672
		c-57.479-13.204-71.031-33.135-122.432-76.072c-26.409-22.06-65.7-18.534-87.759,7.877c-22.059,26.407-18.533,65.699,7.875,87.756
		c49.674,41.495,83.821,81.069,174.414,101.883C550.55,507.428,583.979,486.482,591.685,452.951L591.685,452.951z"/>
	
		<linearGradient id="SVGID_4_" gradientUnits="userSpaceOnUse" x1="93.7466" y1="467.4946" x2="-112.5624" y2="467.4946" gradientTransform="matrix(-1.0199 0 0 -1.0199 514.7115 857.7459)">
		<stop  offset="0" style="stop-color:#EC6F80"/>
		<stop  offset="1" style="stop-color:#ECA0AA"/>
	</linearGradient>
	<path fill="url(#SVGID_4_)" d="M355.165,383.755l-33.433-20.218c-4.034-18.215,0.107-38.03,12.991-53.454
		c22.057-26.411,61.348-29.935,87.757-7.877c51.402,42.938,64.954,62.868,122.434,76.072c33.536,7.703,54.478,41.136,46.771,74.672
		C561.904,482.077,493.941,498.285,355.165,383.755L355.165,383.755z"/>
	
		<linearGradient id="SVGID_5_" gradientUnits="userSpaceOnUse" x1="290.249" y1="454.8042" x2="290.249" y2="178.5348" gradientTransform="matrix(1.0199 0 0 -1.0199 0.037 857.7459)">
		<stop  offset="0" style="stop-color:#ECA0AA"/>
		<stop  offset="1" style="stop-color:#F8DDE3"/>
	</linearGradient>
	<path fill="url(#SVGID_5_)" d="M491.39,493.858c-16.192-14.792-30.849-32.332-43.512-50.481
		c-19.265-27.605-16.545-64.652,5.742-89.881c32.261-36.52,51.997-84.36,52.479-136.808C507.158,101.174,413.41,5.82,297.894,5.005
		C181.372,4.185,86.656,98.395,86.656,214.726c0,53.489,20.029,102.293,52.992,139.338c22.045,24.775,23.855,61.655,4.916,88.879
		c-12.737,18.31-27.504,36.016-43.831,50.931c-25.321,23.13-28.009,63.546-4.872,88.861c23.183,25.364,62.446,27.118,87.814,4.137
		c38.902-35.241,74.014-83.704,98.785-132.16c5.674-11.096,21.544-11.096,27.217,0c24.774,48.461,59.889,96.924,98.787,132.16
		c25.369,22.981,64.631,21.228,87.814-4.137C519.421,557.411,516.718,516.999,491.39,493.858L491.39,493.858z"/>
	
		<linearGradient id="SVGID_6_" gradientUnits="userSpaceOnUse" x1="290.249" y1="844.0493" x2="290.249" y2="280.3652" gradientTransform="matrix(1.0199 0 0 -1.0199 0.037 857.7459)">
		<stop  offset="0" style="stop-color:#EC6F80"/>
		<stop  offset="1" style="stop-color:#ECA0AA"/>
	</linearGradient>
	<path fill="url(#SVGID_6_)" d="M313.326,454.713c2.087-9.429,18.443-18.167,45.014,21.506
		c42.647,63.679,83.328,119.271,136.778,107.721c0.388-0.401,0.78-0.791,1.159-1.205c23.145-25.324,20.441-65.736-4.887-88.877
		c-16.194-14.792-30.849-32.332-43.514-50.481c-19.263-27.605-16.546-64.652,5.741-89.881c32.261-36.52,52-84.36,52.479-136.809
		C507.158,101.174,413.41,5.82,297.894,5.005C181.372,4.185,86.656,98.395,86.656,214.726c0,53.488,20.029,102.293,52.992,139.338
		c22.045,24.775,23.855,61.655,4.916,88.879c-12.737,18.31-27.504,36.016-43.831,50.931c-25.321,23.129-28.009,63.546-4.872,88.861
		c55.84,16.067,97.67-40.94,141.587-106.516c26.569-39.674,42.927-30.935,45.013-21.506c5.673-11.098,21.542-11.098,27.217,0
		c0.978,1.912,1.999,3.824,3.01,5.735C312.883,457.744,313.095,455.755,313.326,454.713L313.326,454.713z"/>
	<g>
		<ellipse fill="#EFC5DB" cx="193.201" cy="315.587" rx="17.792" ry="14.298"/>
		<ellipse fill="#EFC5DB" cx="402.585" cy="315.587" rx="17.794" ry="14.298"/>
		<ellipse fill="#FFFFFF" cx="223.809" cy="280.366" rx="35.29" ry="35.29"/>
		<ellipse fill="#FFFFFF" cx="372.232" cy="280.347" rx="35.29" ry="35.29"/>
		<g>
			<g>
				<ellipse fill="#3B3B44" cx="223.693" cy="280.266" rx="21.027" ry="21.027"/>
				<ellipse fill="#3B3B44" cx="372.138" cy="280.398" rx="21.027" ry="21.027"/>
			</g>
			<path fill="#3B3B44" d="M297.894,316.709c-6.252,0-12.503-2.363-17.603-7.093c-2.412-2.236-2.556-6.004-0.317-8.417
				c2.236-2.41,6.006-2.553,8.417-0.318c5.595,5.188,13.41,5.188,19.005,0c2.412-2.234,6.181-2.094,8.417,0.318
				c2.236,2.413,2.095,6.181-0.318,8.417C310.395,314.346,304.145,316.709,297.894,316.709z"/>
		</g>
	</g>
	<path fill="#E88792" d="M133.205,384.298c-7.924,2.442-13.65,9.6-13.811,17.89c-0.127,6.626-2.15,13.278-6.121,18.986
		c-12.179,17.503-25.047,32.493-38.249,44.551c-10.531,9.621-18.753,21.177-24.385,33.946c8.972,2.104,18.548,2.252,28.136,0.05
		c7.646-1.758,14.881-3.651,21.766-5.663c0.065-0.062,0.126-0.126,0.192-0.188c16.327-14.913,31.094-32.62,43.831-50.928
		c8.461-12.163,12.777-26.25,12.998-40.324C157.765,389.817,145.441,380.528,133.205,384.298L133.205,384.298z"/>
	<path fill="#E05D6F" d="M144.564,442.943c8.461-12.162,12.777-26.249,12.998-40.324c0.201-12.802-12.121-22.091-24.357-18.32
		c-7.924,2.442-13.65,9.6-13.811,17.89c-0.127,6.626-2.15,13.278-6.121,18.986c-12.179,17.503-25.047,32.493-38.249,44.551
		c-2.843,2.599-5.503,5.349-8.005,8.214c19.124-1.168,42.27-7.256,70.123-20.757C139.678,449.797,142.167,446.388,144.564,442.943
		L144.564,442.943z"/>
	<g>
		<path fill="#FFCCD3" d="M425.97,111.366c-3.282,0-6.552-1.349-8.903-3.993c-3.451-3.88-7.138-7.638-10.95-11.171
			c-4.827-4.472-5.114-12.009-0.643-16.835c4.471-4.825,12.008-5.113,16.835-0.643c4.37,4.051,8.598,8.361,12.556,12.809
			c4.373,4.916,3.935,12.444-0.979,16.818C431.614,110.373,428.788,111.366,425.97,111.366z"/>
		<path fill="#FFCCD3" d="M468.585,206.045c-5.954,0-11.099-4.456-11.814-10.514c-2.097-17.718-7.081-34.836-14.821-50.881
			c-2.855-5.926-0.369-13.046,5.558-15.904c5.929-2.859,13.048-0.37,15.904,5.555c8.885,18.427,14.613,38.086,17.018,58.431
			c0.773,6.533-3.896,12.457-10.43,13.229C469.525,206.018,469.052,206.045,468.585,206.045L468.585,206.045z"/>
	</g>
</g>
</svg>
