<?xml version="1.0" encoding="utf-8"?>
<!-- Generator: Adobe Illustrator 15.0.0, SVG Export Plug-In . SVG Version: 6.00 Build 0)  -->
<!DOCTYPE svg PUBLIC "-//W3C//DTD SVG 1.1//EN" "http://www.w3.org/Graphics/SVG/1.1/DTD/svg11.dtd">
<svg version="1.1" id="Layer_1" xmlns="http://www.w3.org/2000/svg" xmlns:xlink="http://www.w3.org/1999/xlink" x="0px" y="0px"
	 width="1349.372px" height="65px" viewBox="0 0 1349.372 65" enable-background="new 0 0 1349.372 65" xml:space="preserve">
<g>
	<g>
		<g>
			<polygon fill="#99D4FE" points="1240.16,54.611 431.169,54.611 430.992,54.434 395.751,19.192 33.1,19.192 14.616,37.678 
				13.757,36.82 32.597,17.98 396.253,17.98 396.432,18.157 431.672,53.398 1239.657,53.398 1262.182,30.875 1340.715,30.875 
				1340.715,32.087 1262.685,32.087 			"/>
		</g>
		<circle fill="#99D4FE" cx="14.186" cy="37.249" r="4.471"/>
		<circle fill="#99D4FE" cx="1340.715" cy="31.49" r="4.471"/>
		<circle fill="#99D4FE" cx="1262.746" cy="25.427" r="2.654"/>
		<circle fill="#99D4FE" cx="1310.548" cy="36.645" r="2.654"/>
		<circle fill="#99D4FE" cx="1235.914" cy="61.102" r="2.654"/>
		<circle fill="#99D4FE" cx="1250.811" cy="33.512" r="2.654"/>
		<circle fill="#99D4FE" cx="999.02" cy="48.798" r="2.654"/>
		<circle fill="#99D4FE" cx="967.489" cy="46.473" r="2.654"/>
		<circle fill="#99D4FE" cx="698.951" cy="62.717" r="2.654"/>
		<circle fill="#99D4FE" cx="443.517" cy="37.552" r="2.654"/>
		<circle fill="#99D4FE" cx="407.197" cy="1.475" r="2.654"/>
		<circle fill="#99D4FE" cx="392.795" cy="25.805" r="2.654"/>
		<circle fill="#99D4FE" cx="149.914" cy="49.959" r="2.654"/>
		<circle fill="#99D4FE" cx="35.966" cy="25.805" r="2.654"/>
		<circle fill="#99D4FE" cx="151.202" cy="36.883" r="2.654"/>
		<circle fill="#99D4FE" cx="709.952" cy="64.839" r="2.654"/>
		<circle fill="#99D4FE" cx="1225.065" cy="65.37" r="2.654"/>
		<g>
			<polygon fill="#99D4FE" points="151.504,37.489 46.792,37.489 35.536,26.233 36.394,25.376 47.295,36.277 151.504,36.277 			"/>
		</g>
		<g>
			<polygon fill="#99D4FE" points="149.812,50.387 148.954,49.529 169.95,28.533 390.14,28.533 390.14,29.746 170.453,29.746 			"/>
		</g>
		<polygon fill="#99D4FE" points="58.705,18.586 65.131,12.159 209.413,12.159 215.81,18.557 		"/>
		<g>
			<polygon fill="#99D4FE" points="695.043,68.1 424.099,68.1 423.921,67.922 391.859,35.859 391.859,25.805 393.071,25.805 
				393.071,35.356 424.601,66.887 694.542,66.887 698.936,62.491 699.795,63.349 			"/>
		</g>
		<g>
			<polygon fill="#99D4FE" points="966.76,46.401 958.834,38.476 443.212,38.476 443.035,38.298 406.818,2.08 200.291,2.08 
				192.207,10.165 191.348,9.308 199.788,0.868 407.32,0.868 407.498,1.045 443.715,37.263 959.336,37.263 967.619,45.544 			"/>
		</g>
		<g>
			<rect x="709.952" y="64.765" fill="#99D4FE" width="515.704" height="1.212"/>
		</g>
		<g>
			<polygon fill="#99D4FE" points="1241.27,66.986 1235.485,61.201 1236.344,60.344 1241.27,65.271 1266.992,39.55 1306.912,39.55 
				1310.448,36.013 1311.306,36.87 1307.414,40.762 1267.495,40.762 			"/>
		</g>
		<g>
			<polygon fill="#99D4FE" points="1322.146,29.366 1319.242,26.461 1262.494,26.461 1262.494,25.249 1319.744,25.249 
				1323.004,28.509 			"/>
		</g>
		<g>
			<polygon fill="#99D4FE" points="1236.166,49.226 999.333,49.226 999.333,48.014 1235.664,48.014 1250.381,33.295 1251.24,34.152 
							"/>
		</g>
		<g>
			<path fill="#99D4FE" d="M469.676,56.431h-39.261l-0.71-0.711c0,0-12.1-12.101-12.302-12.303l3.426-3.434
				c0.173,0.172,9,9,11.596,11.596h37.25V56.431z"/>
		</g>
		<g>
			<polygon fill="#99D4FE" points="1256.897,40.447 1253.467,37.017 1261.428,29.055 1278.865,29.055 1278.865,33.906 
				1263.438,33.906 			"/>
		</g>
		<g>
			<rect x="927.605" y="62.944" fill="#99D4FE" width="36.383" height="4.852"/>
		</g>
		<g>
			<polygon fill="#99D4FE" points="168.581,34.19 165.151,30.76 169.196,26.714 197.386,26.714 197.386,31.565 171.206,31.565 			
				"/>
		</g>
	</g>
	<g>
		<polygon fill="#99D4FE" points="393.88,55.756 192.714,55.756 176.119,39.16 176.977,38.303 193.217,54.543 393.88,54.543 		"/>
	</g>
	<g>
		<polygon fill="#99D4FE" points="982.512,37.121 964.584,19.192 436.617,19.192 436.617,17.98 965.086,17.98 983.372,36.264 		"/>
	</g>
	<g>
		<polygon fill="#99D4FE" points="978.767,25.021 977.909,24.163 983.949,18.124 1257.642,18.124 1257.642,19.337 984.452,19.337 		
			"/>
	</g>
	<g>
		<polygon fill="#99D4FE" points="970.121,27.302 963.831,21.012 943.27,21.012 943.27,16.16 965.84,16.16 973.55,23.872 		"/>
	</g>
</g>
</svg>
